<svg width="624" height="1269" viewBox="0 0 624 1269" fill="none" xmlns="http://www.w3.org/2000/svg">
<ellipse opacity="0.0169492" cx="80.1104" cy="660.641" rx="80.1104" ry="660.641" transform="matrix(-0.766787 0.641902 -0.643673 -0.765301 1052.67 1088.49)" stroke="url(#paint0_linear_1403_7518)" stroke-width="4"/>
<ellipse opacity="0.0338983" cx="80.1411" cy="650.382" rx="80.1411" ry="650.382" transform="matrix(-0.866533 0.49912 -0.500881 -0.865516 961.209 1157.24)" stroke="url(#paint1_linear_1403_7518)" stroke-width="4"/>
<ellipse opacity="0.0508475" cx="80.1661" cy="640.176" rx="80.1661" ry="640.176" transform="matrix(-0.93995 0.341312 -0.34273 -0.939434 860.759 1208.36)" stroke="url(#paint2_linear_1403_7518)" stroke-width="4"/>
<ellipse opacity="0.0677966" cx="80.1824" cy="630.045" rx="80.1824" ry="630.045" transform="matrix(-0.984877 0.173253 -0.174044 -0.984738 754.624 1240.86)" stroke="url(#paint3_linear_1403_7518)" stroke-width="4"/>
<ellipse opacity="0.0847458" cx="565.999" cy="634.32" rx="80.188" ry="620" transform="rotate(-180 565.999 634.32)" stroke="url(#paint4_linear_1403_7518)" stroke-width="4"/>
<ellipse opacity="0.101695" cx="80.1824" cy="610.043" rx="80.1824" ry="610.043" transform="matrix(-0.984877 -0.173253 0.174044 -0.984738 538.795 1248.94)" stroke="url(#paint5_linear_1403_7518)" stroke-width="4"/>
<ellipse opacity="0.118644" cx="80.1661" cy="600.165" rx="80.1661" ry="600.165" transform="matrix(-0.93995 -0.341312 0.34273 -0.939434 435.657 1225.5)" stroke="url(#paint6_linear_1403_7518)" stroke-width="4"/>
<ellipse opacity="0.135593" cx="80.1411" cy="590.347" rx="80.1411" ry="590.347" transform="matrix(-0.866533 -0.49912 0.500881 -0.865516 339.751 1185.27)" stroke="url(#paint7_linear_1403_7518)" stroke-width="4"/>
<ellipse opacity="0.152542" cx="80.1104" cy="580.564" rx="80.1104" ry="580.564" transform="matrix(-0.766787 -0.641902 0.643673 -0.765301 253.735 1130.05)" stroke="url(#paint8_linear_1403_7518)" stroke-width="4"/>
<ellipse opacity="0.169492" cx="80.0777" cy="570.787" rx="80.0777" ry="570.787" transform="matrix(-0.643673 -0.765301 0.766787 -0.641902 179.872 1061.99)" stroke="url(#paint9_linear_1403_7518)" stroke-width="4"/>
<ellipse opacity="0.186441" cx="80.0471" cy="560.987" rx="80.0471" ry="560.987" transform="matrix(-0.500881 -0.865516 0.866533 -0.49912 119.979 983.604)" stroke="url(#paint10_linear_1403_7518)" stroke-width="4"/>
<ellipse opacity="0.20339" cx="80.022" cy="551.142" rx="80.022" ry="551.142" transform="matrix(-0.34273 -0.939434 0.93995 -0.341312 75.3809 897.609)" stroke="url(#paint11_linear_1403_7518)" stroke-width="4"/>
<ellipse opacity="0.220339" cx="80.0057" cy="541.231" rx="80.0057" ry="541.231" transform="matrix(-0.174044 -0.984738 0.984877 -0.173253 46.8779 806.877)" stroke="url(#paint12_linear_1403_7518)" stroke-width="4"/>
<ellipse opacity="0.237288" cx="566.001" cy="634.322" rx="80" ry="531.246" transform="rotate(-90 566.001 634.322)" stroke="url(#paint13_linear_1403_7518)" stroke-width="4"/>
<ellipse opacity="0.254237" cx="80.0057" cy="521.185" rx="80.0057" ry="521.185" transform="matrix(0.174044 -0.984738 0.984877 0.173253 38.7715 622.811)" stroke="url(#paint14_linear_1403_7518)" stroke-width="4"/>
<ellipse opacity="0.271186" cx="80.022" cy="511.059" rx="80.022" ry="511.059" transform="matrix(0.34273 -0.939434 0.93995 0.341312 58.2031 535.066)" stroke="url(#paint15_linear_1403_7518)" stroke-width="4"/>
<ellipse opacity="0.288136" cx="80.0471" cy="500.882" rx="80.0471" ry="500.882" transform="matrix(0.500881 -0.865516 0.866533 0.49912 91.874 453.604)" stroke="url(#paint16_linear_1403_7518)" stroke-width="4"/>
<ellipse opacity="0.305085" cx="80.0777" cy="490.676" rx="80.0777" ry="490.676" transform="matrix(0.643673 -0.765301 0.766787 0.641902 138.212 380.639)" stroke="url(#paint17_linear_1403_7518)" stroke-width="4"/>
<ellipse opacity="0.322034" cx="80.1104" cy="480.466" rx="80.1104" ry="480.466" transform="matrix(0.766787 -0.641902 0.643673 0.765301 195.308 318.043)" stroke="url(#paint18_linear_1403_7518)" stroke-width="4"/>
<ellipse opacity="0.338983" cx="80.1411" cy="470.276" rx="80.1411" ry="470.276" transform="matrix(0.866533 -0.49912 0.500881 0.865516 261.002 267.291)" stroke="url(#paint19_linear_1403_7518)" stroke-width="4"/>
<ellipse opacity="0.355932" cx="80.1661" cy="460.127" rx="80.1661" ry="460.127" transform="matrix(0.93995 -0.341312 0.34273 0.939434 332.948 229.426)" stroke="url(#paint20_linear_1403_7518)" stroke-width="4"/>
<ellipse opacity="0.372881" cx="80.1824" cy="450.032" rx="80.1824" ry="450.032" transform="matrix(0.984877 -0.173253 0.174044 0.984738 408.705 205.051)" stroke="url(#paint21_linear_1403_7518)" stroke-width="4"/>
<ellipse opacity="0.38983" cx="565.999" cy="634.322" rx="80.188" ry="440" stroke="url(#paint22_linear_1403_7518)" stroke-width="4"/>
<ellipse opacity="0.40678" cx="80.1824" cy="430.03" rx="80.1824" ry="430.03" transform="matrix(0.984877 0.173253 -0.174044 0.984738 561.875 196.963)" stroke="url(#paint23_linear_1403_7518)" stroke-width="4"/>
<ellipse opacity="0.423729" cx="80.1661" cy="420.116" rx="80.1661" ry="420.116" transform="matrix(0.93995 0.341312 -0.34273 0.939434 634.633 212.289)" stroke="url(#paint24_linear_1403_7518)" stroke-width="4"/>
<ellipse opacity="0.440678" cx="80.1411" cy="410.241" rx="80.1411" ry="410.241" transform="matrix(0.866533 0.49912 -0.500881 0.865516 702.036 239.252)" stroke="url(#paint25_linear_1403_7518)" stroke-width="4"/>
<ellipse opacity="0.457627" cx="80.1104" cy="400.389" rx="80.1104" ry="400.389" transform="matrix(0.766787 0.641902 -0.643673 0.765301 762.293 276.482)" stroke="url(#paint26_linear_1403_7518)" stroke-width="4"/>
<ellipse opacity="0.474576" cx="80.0777" cy="390.538" rx="80.0777" ry="390.538" transform="matrix(0.643673 0.765301 -0.766787 0.641902 813.916 322.354)" stroke="url(#paint27_linear_1403_7518)" stroke-width="4"/>
<ellipse opacity="0.491525" cx="80.0471" cy="380.67" rx="80.0471" ry="380.67" transform="matrix(0.500881 0.865516 -0.866533 0.49912 855.77 375.041)" stroke="url(#paint28_linear_1403_7518)" stroke-width="4"/>
<ellipse opacity="0.508475" cx="80.022" cy="370.768" rx="80.022" ry="370.768" transform="matrix(0.34273 0.939434 -0.93995 0.341312 887.078 432.6)" stroke="url(#paint29_linear_1403_7518)" stroke-width="4"/>
<ellipse opacity="0.525424" cx="80.0057" cy="360.821" rx="80.0057" ry="360.821" transform="matrix(0.174044 0.984738 -0.984877 0.173253 907.439 493.025)" stroke="url(#paint30_linear_1403_7518)" stroke-width="4"/>
<ellipse opacity="0.542373" cx="566.001" cy="634.322" rx="80" ry="350.823" transform="rotate(90 566.001 634.322)" stroke="url(#paint31_linear_1403_7518)" stroke-width="4"/>
<ellipse opacity="0.559322" cx="80.0057" cy="340.775" rx="80.0057" ry="340.775" transform="matrix(-0.174044 0.984738 -0.984877 -0.173253 915.547 614.58)" stroke="url(#paint32_linear_1403_7518)" stroke-width="4"/>
<ellipse opacity="0.576271" cx="80.022" cy="330.685" rx="80.022" ry="330.685" transform="matrix(-0.34273 0.939434 -0.93995 -0.341312 904.253 672.014)" stroke="url(#paint33_linear_1403_7518)" stroke-width="4"/>
<ellipse opacity="0.59322" cx="80.0471" cy="320.564" rx="80.0471" ry="320.564" transform="matrix(-0.500881 0.865516 -0.866533 -0.49912 883.874 725.041)" stroke="url(#paint34_linear_1403_7518)" stroke-width="4"/>
<ellipse opacity="0.610169" cx="80.0777" cy="310.428" rx="80.0777" ry="310.428" transform="matrix(-0.643673 0.765301 -0.766787 -0.641902 855.576 772.303)" stroke="url(#paint35_linear_1403_7518)" stroke-width="4"/>
<ellipse opacity="0.627119" cx="80.1104" cy="300.292" rx="80.1104" ry="300.292" transform="matrix(-0.766787 0.641902 -0.643673 -0.765301 820.717 812.713)" stroke="url(#paint36_linear_1403_7518)" stroke-width="4"/>
<ellipse opacity="0.644068" cx="80.1411" cy="290.171" rx="80.1411" ry="290.171" transform="matrix(-0.866533 0.49912 -0.500881 -0.865516 780.785 845.471)" stroke="url(#paint37_linear_1403_7518)" stroke-width="4"/>
<ellipse opacity="0.661017" cx="80.1661" cy="280.077" rx="80.1661" ry="280.077" transform="matrix(-0.93995 0.341312 -0.34273 -0.939434 737.344 870.074)" stroke="url(#paint38_linear_1403_7518)" stroke-width="4"/>
<ellipse opacity="0.677966" cx="80.1824" cy="270.019" rx="80.1824" ry="270.019" transform="matrix(-0.984877 0.173253 -0.174044 -0.984738 691.965 886.33)" stroke="url(#paint39_linear_1403_7518)" stroke-width="4"/>
<ellipse opacity="0.694915" cx="565.998" cy="634.322" rx="80.188" ry="260" transform="rotate(-180 565.998 634.322)" stroke="url(#paint40_linear_1403_7518)" stroke-width="4"/>
<ellipse opacity="0.711864" cx="80.1824" cy="250.018" rx="80.1824" ry="250.018" transform="matrix(-0.984877 -0.173253 0.174044 -0.984738 601.455 894.416)" stroke="url(#paint41_linear_1403_7518)" stroke-width="4"/>
<ellipse opacity="0.728814" cx="80.1661" cy="240.066" rx="80.1661" ry="240.066" transform="matrix(-0.93995 -0.341312 0.34273 -0.939434 559.072 887.209)" stroke="url(#paint42_linear_1403_7518)" stroke-width="4"/>
<ellipse opacity="0.745763" cx="80.1411" cy="230.135" rx="80.1411" ry="230.135" transform="matrix(-0.866533 -0.49912 0.500881 -0.865516 520.175 873.508)" stroke="url(#paint43_linear_1403_7518)" stroke-width="4"/>
<ellipse opacity="0.762712" cx="80.1104" cy="220.214" rx="80.1104" ry="220.214" transform="matrix(-0.766787 -0.641902 0.643673 -0.765301 485.681 854.275)" stroke="url(#paint44_linear_1403_7518)" stroke-width="4"/>
<ellipse opacity="0.779661" cx="80.0777" cy="210.29" rx="80.0777" ry="210.29" transform="matrix(-0.643673 -0.765301 0.766787 -0.641902 456.295 830.592)" stroke="url(#paint45_linear_1403_7518)" stroke-width="4"/>
<ellipse opacity="0.79661" cx="80.0471" cy="200.353" rx="80.0471" ry="200.353" transform="matrix(-0.500881 -0.865516 0.866533 -0.49912 432.481 803.604)" stroke="url(#paint46_linear_1403_7518)" stroke-width="4"/>
<ellipse opacity="0.813559" cx="80.022" cy="190.394" rx="80.022" ry="190.394" transform="matrix(-0.34273 -0.939434 0.93995 -0.341312 414.464 774.48)" stroke="url(#paint47_linear_1403_7518)" stroke-width="4"/>
<ellipse opacity="0.830508" cx="80.0057" cy="180.41" rx="80.0057" ry="180.41" transform="matrix(-0.174044 -0.984738 0.984877 -0.173253 402.242 744.363)" stroke="url(#paint48_linear_1403_7518)" stroke-width="4"/>
<ellipse opacity="0.847458" cx="565.999" cy="634.322" rx="80" ry="170.4" transform="rotate(-90 565.999 634.322)" stroke="url(#paint49_linear_1403_7518)" stroke-width="4"/>
<ellipse opacity="0.864407" cx="80.0057" cy="160.365" rx="80.0057" ry="160.365" transform="matrix(0.174044 -0.984738 0.984877 0.173253 394.136 685.322)" stroke="url(#paint50_linear_1403_7518)" stroke-width="4"/>
<ellipse opacity="0.881356" cx="80.022" cy="150.311" rx="80.022" ry="150.311" transform="matrix(0.34273 -0.939434 0.93995 0.341312 397.288 658.195)" stroke="url(#paint51_linear_1403_7518)" stroke-width="4"/>
<ellipse opacity="0.898305" cx="80.0471" cy="140.247" rx="80.0471" ry="140.247" transform="matrix(0.500881 -0.865516 0.866533 0.49912 404.377 633.604)" stroke="url(#paint52_linear_1403_7518)" stroke-width="4"/>
<ellipse opacity="0.915254" cx="80.0777" cy="130.179" rx="80.0777" ry="130.179" transform="matrix(0.643673 -0.765301 0.766787 0.641902 414.636 612.043)" stroke="url(#paint53_linear_1403_7518)" stroke-width="4"/>
<ellipse opacity="0.932203" cx="80.1104" cy="120.117" rx="80.1104" ry="120.117" transform="matrix(0.766787 -0.641902 0.643673 0.765301 427.257 593.82)" stroke="url(#paint54_linear_1403_7518)" stroke-width="4"/>
<ellipse opacity="0.949153" cx="80.1411" cy="110.065" rx="80.1411" ry="110.065" transform="matrix(0.866533 -0.49912 0.500881 0.865516 441.426 579.059)" stroke="url(#paint55_linear_1403_7518)" stroke-width="4"/>
<ellipse opacity="0.966102" cx="80.1661" cy="100.028" rx="80.1661" ry="100.028" transform="matrix(0.93995 -0.341312 0.34273 0.939434 456.365 567.715)" stroke="url(#paint56_linear_1403_7518)" stroke-width="4"/>
<ellipse opacity="0.983051" cx="80.1824" cy="90.0064" rx="80.1824" ry="90.0064" transform="matrix(0.984877 -0.173253 0.174044 0.984738 471.364 559.582)" stroke="url(#paint57_linear_1403_7518)" stroke-width="4"/>
<ellipse cx="566.001" cy="634.322" rx="80.188" ry="80" stroke="url(#paint58_linear_1403_7518)" stroke-width="4"/>
<defs>
<linearGradient id="paint0_linear_1403_7518" x1="80.1104" y1="0" x2="80.1106" y2="1370.83" gradientUnits="userSpaceOnUse">
<stop stop-color="#FF1CF7"/>
<stop offset="1" stop-color="#00F0FF"/>
</linearGradient>
<linearGradient id="paint1_linear_1403_7518" x1="80.1411" y1="0" x2="80.1413" y2="1349.54" gradientUnits="userSpaceOnUse">
<stop stop-color="#FF1CF7"/>
<stop offset="1" stop-color="#00F0FF"/>
</linearGradient>
<linearGradient id="paint2_linear_1403_7518" x1="80.1661" y1="0" x2="80.1663" y2="1328.37" gradientUnits="userSpaceOnUse">
<stop stop-color="#FF1CF7"/>
<stop offset="1" stop-color="#00F0FF"/>
</linearGradient>
<linearGradient id="paint3_linear_1403_7518" x1="80.1824" y1="0" x2="80.1826" y2="1307.34" gradientUnits="userSpaceOnUse">
<stop stop-color="#FF1CF7"/>
<stop offset="1" stop-color="#00F0FF"/>
</linearGradient>
<linearGradient id="paint4_linear_1403_7518" x1="565.999" y1="14.3196" x2="566" y2="1300.82" gradientUnits="userSpaceOnUse">
<stop stop-color="#FF1CF7"/>
<stop offset="1" stop-color="#00F0FF"/>
</linearGradient>
<linearGradient id="paint5_linear_1403_7518" x1="80.1824" y1="0" x2="80.1826" y2="1265.84" gradientUnits="userSpaceOnUse">
<stop stop-color="#FF1CF7"/>
<stop offset="1" stop-color="#00F0FF"/>
</linearGradient>
<linearGradient id="paint6_linear_1403_7518" x1="80.1661" y1="0" x2="80.1663" y2="1245.34" gradientUnits="userSpaceOnUse">
<stop stop-color="#FF1CF7"/>
<stop offset="1" stop-color="#00F0FF"/>
</linearGradient>
<linearGradient id="paint7_linear_1403_7518" x1="80.1411" y1="0" x2="80.1413" y2="1224.97" gradientUnits="userSpaceOnUse">
<stop stop-color="#FF1CF7"/>
<stop offset="1" stop-color="#00F0FF"/>
</linearGradient>
<linearGradient id="paint8_linear_1403_7518" x1="80.1104" y1="0" x2="80.1106" y2="1204.67" gradientUnits="userSpaceOnUse">
<stop stop-color="#FF1CF7"/>
<stop offset="1" stop-color="#00F0FF"/>
</linearGradient>
<linearGradient id="paint9_linear_1403_7518" x1="80.0777" y1="0" x2="80.0779" y2="1184.38" gradientUnits="userSpaceOnUse">
<stop stop-color="#FF1CF7"/>
<stop offset="1" stop-color="#00F0FF"/>
</linearGradient>
<linearGradient id="paint10_linear_1403_7518" x1="80.0471" y1="0" x2="80.0472" y2="1164.05" gradientUnits="userSpaceOnUse">
<stop stop-color="#FF1CF7"/>
<stop offset="1" stop-color="#00F0FF"/>
</linearGradient>
<linearGradient id="paint11_linear_1403_7518" x1="80.022" y1="0" x2="80.0222" y2="1143.62" gradientUnits="userSpaceOnUse">
<stop stop-color="#FF1CF7"/>
<stop offset="1" stop-color="#00F0FF"/>
</linearGradient>
<linearGradient id="paint12_linear_1403_7518" x1="80.0057" y1="0" x2="80.0058" y2="1123.05" gradientUnits="userSpaceOnUse">
<stop stop-color="#FF1CF7"/>
<stop offset="1" stop-color="#00F0FF"/>
</linearGradient>
<linearGradient id="paint13_linear_1403_7518" x1="566.001" y1="103.077" x2="566.001" y2="1205.41" gradientUnits="userSpaceOnUse">
<stop stop-color="#FF1CF7"/>
<stop offset="1" stop-color="#00F0FF"/>
</linearGradient>
<linearGradient id="paint14_linear_1403_7518" x1="80.0057" y1="0" x2="80.0058" y2="1081.46" gradientUnits="userSpaceOnUse">
<stop stop-color="#FF1CF7"/>
<stop offset="1" stop-color="#00F0FF"/>
</linearGradient>
<linearGradient id="paint15_linear_1403_7518" x1="80.022" y1="0" x2="80.0222" y2="1060.45" gradientUnits="userSpaceOnUse">
<stop stop-color="#FF1CF7"/>
<stop offset="1" stop-color="#00F0FF"/>
</linearGradient>
<linearGradient id="paint16_linear_1403_7518" x1="80.0471" y1="0" x2="80.0472" y2="1039.33" gradientUnits="userSpaceOnUse">
<stop stop-color="#FF1CF7"/>
<stop offset="1" stop-color="#00F0FF"/>
</linearGradient>
<linearGradient id="paint17_linear_1403_7518" x1="80.0777" y1="0" x2="80.0779" y2="1018.15" gradientUnits="userSpaceOnUse">
<stop stop-color="#FF1CF7"/>
<stop offset="1" stop-color="#00F0FF"/>
</linearGradient>
<linearGradient id="paint18_linear_1403_7518" x1="80.1104" y1="0" x2="80.1105" y2="996.968" gradientUnits="userSpaceOnUse">
<stop stop-color="#FF1CF7"/>
<stop offset="1" stop-color="#00F0FF"/>
</linearGradient>
<linearGradient id="paint19_linear_1403_7518" x1="80.1411" y1="0" x2="80.1412" y2="975.824" gradientUnits="userSpaceOnUse">
<stop stop-color="#FF1CF7"/>
<stop offset="1" stop-color="#00F0FF"/>
</linearGradient>
<linearGradient id="paint20_linear_1403_7518" x1="80.1661" y1="0" x2="80.1662" y2="954.763" gradientUnits="userSpaceOnUse">
<stop stop-color="#FF1CF7"/>
<stop offset="1" stop-color="#00F0FF"/>
</linearGradient>
<linearGradient id="paint21_linear_1403_7518" x1="80.1824" y1="0" x2="80.1825" y2="933.816" gradientUnits="userSpaceOnUse">
<stop stop-color="#FF1CF7"/>
<stop offset="1" stop-color="#00F0FF"/>
</linearGradient>
<linearGradient id="paint22_linear_1403_7518" x1="565.999" y1="194.322" x2="565.999" y2="1107.32" gradientUnits="userSpaceOnUse">
<stop stop-color="#FF1CF7"/>
<stop offset="1" stop-color="#00F0FF"/>
</linearGradient>
<linearGradient id="paint23_linear_1403_7518" x1="80.1824" y1="0" x2="80.1825" y2="892.313" gradientUnits="userSpaceOnUse">
<stop stop-color="#FF1CF7"/>
<stop offset="1" stop-color="#00F0FF"/>
</linearGradient>
<linearGradient id="paint24_linear_1403_7518" x1="80.1661" y1="0" x2="80.1662" y2="871.74" gradientUnits="userSpaceOnUse">
<stop stop-color="#FF1CF7"/>
<stop offset="1" stop-color="#00F0FF"/>
</linearGradient>
<linearGradient id="paint25_linear_1403_7518" x1="80.1411" y1="0" x2="80.1412" y2="851.25" gradientUnits="userSpaceOnUse">
<stop stop-color="#FF1CF7"/>
<stop offset="1" stop-color="#00F0FF"/>
</linearGradient>
<linearGradient id="paint26_linear_1403_7518" x1="80.1104" y1="0" x2="80.1105" y2="830.807" gradientUnits="userSpaceOnUse">
<stop stop-color="#FF1CF7"/>
<stop offset="1" stop-color="#00F0FF"/>
</linearGradient>
<linearGradient id="paint27_linear_1403_7518" x1="80.0777" y1="0" x2="80.0778" y2="810.367" gradientUnits="userSpaceOnUse">
<stop stop-color="#FF1CF7"/>
<stop offset="1" stop-color="#00F0FF"/>
</linearGradient>
<linearGradient id="paint28_linear_1403_7518" x1="80.0471" y1="0" x2="80.0471" y2="789.89" gradientUnits="userSpaceOnUse">
<stop stop-color="#FF1CF7"/>
<stop offset="1" stop-color="#00F0FF"/>
</linearGradient>
<linearGradient id="paint29_linear_1403_7518" x1="80.022" y1="0" x2="80.0221" y2="769.344" gradientUnits="userSpaceOnUse">
<stop stop-color="#FF1CF7"/>
<stop offset="1" stop-color="#00F0FF"/>
</linearGradient>
<linearGradient id="paint30_linear_1403_7518" x1="80.0057" y1="0" x2="80.0057" y2="748.703" gradientUnits="userSpaceOnUse">
<stop stop-color="#FF1CF7"/>
<stop offset="1" stop-color="#00F0FF"/>
</linearGradient>
<linearGradient id="paint31_linear_1403_7518" x1="566.001" y1="283.5" x2="566.001" y2="1011.46" gradientUnits="userSpaceOnUse">
<stop stop-color="#FF1CF7"/>
<stop offset="1" stop-color="#00F0FF"/>
</linearGradient>
<linearGradient id="paint32_linear_1403_7518" x1="80.0057" y1="0" x2="80.0057" y2="707.108" gradientUnits="userSpaceOnUse">
<stop stop-color="#FF1CF7"/>
<stop offset="1" stop-color="#00F0FF"/>
</linearGradient>
<linearGradient id="paint33_linear_1403_7518" x1="80.022" y1="0" x2="80.0221" y2="686.171" gradientUnits="userSpaceOnUse">
<stop stop-color="#FF1CF7"/>
<stop offset="1" stop-color="#00F0FF"/>
</linearGradient>
<linearGradient id="paint34_linear_1403_7518" x1="80.0471" y1="0" x2="80.0471" y2="665.171" gradientUnits="userSpaceOnUse">
<stop stop-color="#FF1CF7"/>
<stop offset="1" stop-color="#00F0FF"/>
</linearGradient>
<linearGradient id="paint35_linear_1403_7518" x1="80.0777" y1="0" x2="80.0778" y2="644.138" gradientUnits="userSpaceOnUse">
<stop stop-color="#FF1CF7"/>
<stop offset="1" stop-color="#00F0FF"/>
</linearGradient>
<linearGradient id="paint36_linear_1403_7518" x1="80.1104" y1="0" x2="80.1104" y2="623.105" gradientUnits="userSpaceOnUse">
<stop stop-color="#FF1CF7"/>
<stop offset="1" stop-color="#00F0FF"/>
</linearGradient>
<linearGradient id="paint37_linear_1403_7518" x1="80.1411" y1="0" x2="80.1411" y2="602.104" gradientUnits="userSpaceOnUse">
<stop stop-color="#FF1CF7"/>
<stop offset="1" stop-color="#00F0FF"/>
</linearGradient>
<linearGradient id="paint38_linear_1403_7518" x1="80.1661" y1="0" x2="80.1661" y2="581.16" gradientUnits="userSpaceOnUse">
<stop stop-color="#FF1CF7"/>
<stop offset="1" stop-color="#00F0FF"/>
</linearGradient>
<linearGradient id="paint39_linear_1403_7518" x1="80.1824" y1="0" x2="80.1824" y2="560.29" gradientUnits="userSpaceOnUse">
<stop stop-color="#FF1CF7"/>
<stop offset="1" stop-color="#00F0FF"/>
</linearGradient>
<linearGradient id="paint40_linear_1403_7518" x1="565.998" y1="374.322" x2="565.998" y2="913.822" gradientUnits="userSpaceOnUse">
<stop stop-color="#FF1CF7"/>
<stop offset="1" stop-color="#00F0FF"/>
</linearGradient>
<linearGradient id="paint41_linear_1403_7518" x1="80.1824" y1="0" x2="80.1824" y2="518.787" gradientUnits="userSpaceOnUse">
<stop stop-color="#FF1CF7"/>
<stop offset="1" stop-color="#00F0FF"/>
</linearGradient>
<linearGradient id="paint42_linear_1403_7518" x1="80.1661" y1="0" x2="80.1661" y2="498.137" gradientUnits="userSpaceOnUse">
<stop stop-color="#FF1CF7"/>
<stop offset="1" stop-color="#00F0FF"/>
</linearGradient>
<linearGradient id="paint43_linear_1403_7518" x1="80.1411" y1="0" x2="80.1411" y2="477.531" gradientUnits="userSpaceOnUse">
<stop stop-color="#FF1CF7"/>
<stop offset="1" stop-color="#00F0FF"/>
</linearGradient>
<linearGradient id="paint44_linear_1403_7518" x1="80.1104" y1="0" x2="80.1104" y2="456.944" gradientUnits="userSpaceOnUse">
<stop stop-color="#FF1CF7"/>
<stop offset="1" stop-color="#00F0FF"/>
</linearGradient>
<linearGradient id="paint45_linear_1403_7518" x1="80.0777" y1="0" x2="80.0778" y2="436.351" gradientUnits="userSpaceOnUse">
<stop stop-color="#FF1CF7"/>
<stop offset="1" stop-color="#00F0FF"/>
</linearGradient>
<linearGradient id="paint46_linear_1403_7518" x1="80.0471" y1="0" x2="80.0471" y2="415.732" gradientUnits="userSpaceOnUse">
<stop stop-color="#FF1CF7"/>
<stop offset="1" stop-color="#00F0FF"/>
</linearGradient>
<linearGradient id="paint47_linear_1403_7518" x1="80.022" y1="0" x2="80.022" y2="395.068" gradientUnits="userSpaceOnUse">
<stop stop-color="#FF1CF7"/>
<stop offset="1" stop-color="#00F0FF"/>
</linearGradient>
<linearGradient id="paint48_linear_1403_7518" x1="80.0057" y1="0" x2="80.0057" y2="374.351" gradientUnits="userSpaceOnUse">
<stop stop-color="#FF1CF7"/>
<stop offset="1" stop-color="#00F0FF"/>
</linearGradient>
<linearGradient id="paint49_linear_1403_7518" x1="565.999" y1="463.923" x2="565.999" y2="817.502" gradientUnits="userSpaceOnUse">
<stop stop-color="#FF1CF7"/>
<stop offset="1" stop-color="#00F0FF"/>
</linearGradient>
<linearGradient id="paint50_linear_1403_7518" x1="80.0057" y1="0" x2="80.0057" y2="332.757" gradientUnits="userSpaceOnUse">
<stop stop-color="#FF1CF7"/>
<stop offset="1" stop-color="#00F0FF"/>
</linearGradient>
<linearGradient id="paint51_linear_1403_7518" x1="80.022" y1="0" x2="80.022" y2="311.896" gradientUnits="userSpaceOnUse">
<stop stop-color="#FF1CF7"/>
<stop offset="1" stop-color="#00F0FF"/>
</linearGradient>
<linearGradient id="paint52_linear_1403_7518" x1="80.0471" y1="0" x2="80.0471" y2="291.012" gradientUnits="userSpaceOnUse">
<stop stop-color="#FF1CF7"/>
<stop offset="1" stop-color="#00F0FF"/>
</linearGradient>
<linearGradient id="paint53_linear_1403_7518" x1="80.0777" y1="0" x2="80.0778" y2="270.122" gradientUnits="userSpaceOnUse">
<stop stop-color="#FF1CF7"/>
<stop offset="1" stop-color="#00F0FF"/>
</linearGradient>
<linearGradient id="paint54_linear_1403_7518" x1="80.1104" y1="0" x2="80.1104" y2="249.242" gradientUnits="userSpaceOnUse">
<stop stop-color="#FF1CF7"/>
<stop offset="1" stop-color="#00F0FF"/>
</linearGradient>
<linearGradient id="paint55_linear_1403_7518" x1="80.1411" y1="0" x2="80.1411" y2="228.384" gradientUnits="userSpaceOnUse">
<stop stop-color="#FF1CF7"/>
<stop offset="1" stop-color="#00F0FF"/>
</linearGradient>
<linearGradient id="paint56_linear_1403_7518" x1="80.1661" y1="0" x2="80.1661" y2="207.557" gradientUnits="userSpaceOnUse">
<stop stop-color="#FF1CF7"/>
<stop offset="1" stop-color="#00F0FF"/>
</linearGradient>
<linearGradient id="paint57_linear_1403_7518" x1="80.1824" y1="0" x2="80.1824" y2="186.763" gradientUnits="userSpaceOnUse">
<stop stop-color="#FF1CF7"/>
<stop offset="1" stop-color="#00F0FF"/>
</linearGradient>
<linearGradient id="paint58_linear_1403_7518" x1="566.001" y1="554.322" x2="566.001" y2="720.322" gradientUnits="userSpaceOnUse">
<stop stop-color="#FF1CF7"/>
<stop offset="1" stop-color="#00F0FF"/>
</linearGradient>
</defs>
</svg>
