<svg width="624" height="1168" viewBox="0 0 624 1168" fill="none" xmlns="http://www.w3.org/2000/svg">
<ellipse opacity="0.0169492" cx="80.0272" cy="660.158" rx="80.0272" ry="660.158" transform="matrix(-0.766228 0.642569 -0.643006 -0.765861 544.805 987.486)" stroke="url(#paint0_linear_1403_7456)" stroke-width="4"/>
<ellipse opacity="0.0338983" cx="80.0348" cy="650.094" rx="80.0348" ry="650.094" transform="matrix(-0.866151 0.499783 -0.500217 -0.8659 453.511 1056.24)" stroke="url(#paint1_linear_1403_7456)" stroke-width="4"/>
<ellipse opacity="0.0508475" cx="80.0409" cy="640.043" rx="80.0409" ry="640.043" transform="matrix(-0.939756 0.341845 -0.342195 -0.939629 353.239 1107.36)" stroke="url(#paint2_linear_1403_7456)" stroke-width="4"/>
<ellipse opacity="0.0677966" cx="80.045" cy="630.011" rx="80.045" ry="630.011" transform="matrix(-0.984825 0.173551 -0.173746 -0.984791 247.292 1139.86)" stroke="url(#paint3_linear_1403_7456)" stroke-width="4"/>
<ellipse opacity="0.0847458" cx="59.0005" cy="533.32" rx="80.0464" ry="620" transform="rotate(-180 59.0005 533.32)" stroke="url(#paint4_linear_1403_7456)" stroke-width="4"/>
<ellipse opacity="0.101695" cx="80.045" cy="610.011" rx="80.045" ry="610.011" transform="matrix(-0.984825 -0.173551 0.173746 -0.984791 31.8438 1147.94)" stroke="url(#paint5_linear_1403_7456)" stroke-width="4"/>
<ellipse opacity="0.118644" cx="80.0409" cy="600.041" rx="80.0409" ry="600.041" transform="matrix(-0.939756 -0.341845 0.342195 -0.939629 -71.1124 1124.5)" stroke="url(#paint6_linear_1403_7456)" stroke-width="4"/>
<ellipse opacity="0.135593" cx="80.0348" cy="590.086" rx="80.0348" ry="590.086" transform="matrix(-0.866151 -0.499783 0.500217 -0.8659 -166.849 1084.27)" stroke="url(#paint7_linear_1403_7456)" stroke-width="4"/>
<ellipse opacity="0.152542" cx="80.0272" cy="580.139" rx="80.0272" ry="580.139" transform="matrix(-0.766228 -0.642569 0.643006 -0.765861 -252.714 1029.05)" stroke="url(#paint8_linear_1403_7456)" stroke-width="4"/>
<ellipse opacity="0.169492" cx="80.0192" cy="570.194" rx="80.0192" ry="570.194" transform="matrix(-0.643006 -0.765861 0.766228 -0.642569 -326.446 960.991)" stroke="url(#paint9_linear_1403_7456)" stroke-width="4"/>
<ellipse opacity="0.186441" cx="80.0116" cy="560.243" rx="80.0116" ry="560.243" transform="matrix(-0.500217 -0.8659 0.866151 -0.499783 -386.232 882.601)" stroke="url(#paint10_linear_1403_7456)" stroke-width="4"/>
<ellipse opacity="0.20339" cx="80.0054" cy="550.281" rx="80.0054" ry="550.281" transform="matrix(-0.342195 -0.939629 0.939756 -0.341845 -430.752 796.607)" stroke="url(#paint11_linear_1403_7456)" stroke-width="4"/>
<ellipse opacity="0.220339" cx="80.0014" cy="540.303" rx="80.0014" ry="540.303" transform="matrix(-0.173746 -0.984791 0.984825 -0.173551 -459.204 705.875)" stroke="url(#paint12_linear_1403_7456)" stroke-width="4"/>
<ellipse opacity="0.237288" cx="58.9995" cy="533.32" rx="80" ry="530.307" transform="rotate(-90 58.9995 533.32)" stroke="url(#paint13_linear_1403_7456)" stroke-width="4"/>
<ellipse opacity="0.254237" cx="80.0014" cy="520.292" rx="80.0014" ry="520.292" transform="matrix(0.173746 -0.984791 0.984825 0.173551 -467.297 521.809)" stroke="url(#paint14_linear_1403_7456)" stroke-width="4"/>
<ellipse opacity="0.271186" cx="80.0054" cy="510.261" rx="80.0054" ry="510.261" transform="matrix(0.342195 -0.939629 0.939756 0.341845 -447.899 434.064)" stroke="url(#paint15_linear_1403_7456)" stroke-width="4"/>
<ellipse opacity="0.288136" cx="80.0116" cy="500.217" rx="80.0116" ry="500.217" transform="matrix(0.500217 -0.8659 0.866151 0.499783 -414.288 352.602)" stroke="url(#paint16_linear_1403_7456)" stroke-width="4"/>
<ellipse opacity="0.305085" cx="80.0192" cy="490.167" rx="80.0192" ry="490.167" transform="matrix(0.643006 -0.765861 0.766228 0.642569 -368.032 279.637)" stroke="url(#paint17_linear_1403_7456)" stroke-width="4"/>
<ellipse opacity="0.322034" cx="80.0272" cy="480.115" rx="80.0272" ry="480.115" transform="matrix(0.766228 -0.642569 0.643006 0.765861 -311.036 217.041)" stroke="url(#paint18_linear_1403_7456)" stroke-width="4"/>
<ellipse opacity="0.338983" cx="80.0348" cy="470.068" rx="80.0348" ry="470.068" transform="matrix(0.866151 -0.499783 0.500217 0.8659 -245.459 166.289)" stroke="url(#paint19_linear_1403_7456)" stroke-width="4"/>
<ellipse opacity="0.355932" cx="80.0409" cy="460.031" rx="80.0409" ry="460.031" transform="matrix(0.939756 -0.341845 0.342195 0.939629 -173.64 128.424)" stroke="url(#paint20_linear_1403_7456)" stroke-width="4"/>
<ellipse opacity="0.372881" cx="80.045" cy="450.008" rx="80.045" ry="450.008" transform="matrix(0.984825 -0.173551 0.173746 0.984791 -98.0166 104.049)" stroke="url(#paint21_linear_1403_7456)" stroke-width="4"/>
<ellipse opacity="0.38983" cx="58.9985" cy="533.32" rx="80.0464" ry="440" stroke="url(#paint22_linear_1403_7456)" stroke-width="4"/>
<ellipse opacity="0.40678" cx="80.045" cy="430.008" rx="80.045" ry="430.008" transform="matrix(0.984825 0.173551 -0.173746 0.984791 54.8828 95.9609)" stroke="url(#paint23_linear_1403_7456)" stroke-width="4"/>
<ellipse opacity="0.423729" cx="80.0409" cy="420.028" rx="80.0409" ry="420.028" transform="matrix(0.939756 0.341845 -0.342195 0.939629 127.513 111.287)" stroke="url(#paint24_linear_1403_7456)" stroke-width="4"/>
<ellipse opacity="0.440678" cx="80.0348" cy="410.059" rx="80.0348" ry="410.059" transform="matrix(0.866151 0.499783 -0.500217 0.8659 194.797 138.25)" stroke="url(#paint25_linear_1403_7456)" stroke-width="4"/>
<ellipse opacity="0.457627" cx="80.0272" cy="400.096" rx="80.0272" ry="400.096" transform="matrix(0.766228 0.642569 -0.643006 0.765861 254.946 175.48)" stroke="url(#paint26_linear_1403_7456)" stroke-width="4"/>
<ellipse opacity="0.474576" cx="80.0192" cy="390.133" rx="80.0192" ry="390.133" transform="matrix(0.643006 0.765861 -0.766228 0.642569 306.479 221.352)" stroke="url(#paint27_linear_1403_7456)" stroke-width="4"/>
<ellipse opacity="0.491525" cx="80.0116" cy="380.165" rx="80.0116" ry="380.165" transform="matrix(0.500217 0.8659 -0.866151 0.499783 348.258 274.039)" stroke="url(#paint28_linear_1403_7456)" stroke-width="4"/>
<ellipse opacity="0.508475" cx="80.0054" cy="370.189" rx="80.0054" ry="370.189" transform="matrix(0.342195 0.939629 -0.939756 0.341845 379.511 331.598)" stroke="url(#paint29_linear_1403_7456)" stroke-width="4"/>
<ellipse opacity="0.525424" cx="80.0014" cy="360.202" rx="80.0014" ry="360.202" transform="matrix(0.173746 0.984791 -0.984825 0.173551 399.837 392.023)" stroke="url(#paint30_linear_1403_7456)" stroke-width="4"/>
<ellipse opacity="0.542373" cx="59.0013" cy="533.32" rx="80" ry="350.203" transform="rotate(90 59.0013 533.32)" stroke="url(#paint31_linear_1403_7456)" stroke-width="4"/>
<ellipse opacity="0.559322" cx="80.0014" cy="340.191" rx="80.0014" ry="340.191" transform="matrix(-0.173746 0.984791 -0.984825 -0.173551 407.93 513.578)" stroke="url(#paint32_linear_1403_7456)" stroke-width="4"/>
<ellipse opacity="0.576271" cx="80.0054" cy="330.169" rx="80.0054" ry="330.169" transform="matrix(-0.342195 0.939629 -0.939756 -0.341845 396.655 571.012)" stroke="url(#paint33_linear_1403_7456)" stroke-width="4"/>
<ellipse opacity="0.59322" cx="80.0116" cy="320.139" rx="80.0116" ry="320.139" transform="matrix(-0.500217 0.8659 -0.866151 -0.499783 376.312 624.039)" stroke="url(#paint34_linear_1403_7456)" stroke-width="4"/>
<ellipse opacity="0.610169" cx="80.0192" cy="310.105" rx="80.0192" ry="310.105" transform="matrix(-0.643006 0.765861 -0.766228 -0.642569 348.064 671.301)" stroke="url(#paint35_linear_1403_7456)" stroke-width="4"/>
<ellipse opacity="0.627119" cx="80.0272" cy="300.072" rx="80.0272" ry="300.072" transform="matrix(-0.766228 0.642569 -0.643006 -0.765861 313.268 711.711)" stroke="url(#paint36_linear_1403_7456)" stroke-width="4"/>
<ellipse opacity="0.644068" cx="80.0348" cy="290.042" rx="80.0348" ry="290.042" transform="matrix(-0.866151 0.499783 -0.500217 -0.8659 273.406 744.469)" stroke="url(#paint37_linear_1403_7456)" stroke-width="4"/>
<ellipse opacity="0.661017" cx="80.0409" cy="280.019" rx="80.0409" ry="280.019" transform="matrix(-0.939756 0.341845 -0.342195 -0.939629 230.041 769.072)" stroke="url(#paint38_linear_1403_7456)" stroke-width="4"/>
<ellipse opacity="0.677966" cx="80.045" cy="270.005" rx="80.045" ry="270.005" transform="matrix(-0.984825 0.173551 -0.173746 -0.984791 184.742 785.328)" stroke="url(#paint39_linear_1403_7456)" stroke-width="4"/>
<ellipse opacity="0.694915" cx="58.9986" cy="533.32" rx="80.0464" ry="260" transform="rotate(-180 58.9986 533.32)" stroke="url(#paint40_linear_1403_7456)" stroke-width="4"/>
<ellipse opacity="0.711864" cx="80.045" cy="250.004" rx="80.045" ry="250.004" transform="matrix(-0.984825 -0.173551 0.173746 -0.984791 94.3926 793.414)" stroke="url(#paint41_linear_1403_7456)" stroke-width="4"/>
<ellipse opacity="0.728814" cx="80.0409" cy="240.016" rx="80.0409" ry="240.016" transform="matrix(-0.939756 -0.341845 0.342195 -0.939629 52.085 786.207)" stroke="url(#paint42_linear_1403_7456)" stroke-width="4"/>
<ellipse opacity="0.745763" cx="80.0348" cy="230.033" rx="80.0348" ry="230.033" transform="matrix(-0.866151 -0.499783 0.500217 -0.8659 13.2559 772.506)" stroke="url(#paint43_linear_1403_7456)" stroke-width="4"/>
<ellipse opacity="0.762712" cx="80.0272" cy="220.053" rx="80.0272" ry="220.053" transform="matrix(-0.766228 -0.642569 0.643006 -0.765861 -21.1777 753.273)" stroke="url(#paint44_linear_1403_7456)" stroke-width="4"/>
<ellipse opacity="0.779661" cx="80.0192" cy="210.071" rx="80.0192" ry="210.071" transform="matrix(-0.643006 -0.765861 0.766228 -0.642569 -50.5107 729.59)" stroke="url(#paint45_linear_1403_7456)" stroke-width="4"/>
<ellipse opacity="0.79661" cx="80.0116" cy="200.087" rx="80.0116" ry="200.087" transform="matrix(-0.500217 -0.8659 0.866151 -0.499783 -74.2822 702.601)" stroke="url(#paint46_linear_1403_7456)" stroke-width="4"/>
<ellipse opacity="0.813559" cx="80.0054" cy="190.097" rx="80.0054" ry="190.097" transform="matrix(-0.342195 -0.939629 0.939756 -0.341845 -92.2676 673.478)" stroke="url(#paint47_linear_1403_7456)" stroke-width="4"/>
<ellipse opacity="0.830508" cx="80.0014" cy="180.101" rx="80.0014" ry="180.101" transform="matrix(-0.173746 -0.984791 0.984825 -0.173551 -104.468 643.361)" stroke="url(#paint48_linear_1403_7456)" stroke-width="4"/>
<ellipse opacity="0.847458" cx="58.9999" cy="533.32" rx="80" ry="170.099" transform="rotate(-90 58.9999 533.32)" stroke="url(#paint49_linear_1403_7456)" stroke-width="4"/>
<ellipse opacity="0.864407" cx="80.0014" cy="160.09" rx="80.0014" ry="160.09" transform="matrix(0.173746 -0.984791 0.984825 0.173551 -112.561 584.32)" stroke="url(#paint50_linear_1403_7456)" stroke-width="4"/>
<ellipse opacity="0.881356" cx="80.0054" cy="150.077" rx="80.0054" ry="150.077" transform="matrix(0.342195 -0.939629 0.939756 0.341845 -109.413 557.193)" stroke="url(#paint51_linear_1403_7456)" stroke-width="4"/>
<ellipse opacity="0.898305" cx="80.0116" cy="140.061" rx="80.0116" ry="140.061" transform="matrix(0.500217 -0.8659 0.866151 0.499783 -102.338 532.602)" stroke="url(#paint52_linear_1403_7456)" stroke-width="4"/>
<ellipse opacity="0.915254" cx="80.0192" cy="130.044" rx="80.0192" ry="130.044" transform="matrix(0.643006 -0.765861 0.766228 0.642569 -92.0967 511.041)" stroke="url(#paint53_linear_1403_7456)" stroke-width="4"/>
<ellipse opacity="0.932203" cx="80.0272" cy="120.029" rx="80.0272" ry="120.029" transform="matrix(0.766228 -0.642569 0.643006 0.765861 -79.498 492.818)" stroke="url(#paint54_linear_1403_7456)" stroke-width="4"/>
<ellipse opacity="0.949153" cx="80.0348" cy="110.016" rx="80.0348" ry="110.016" transform="matrix(0.866151 -0.499783 0.500217 0.8659 -65.3545 478.057)" stroke="url(#paint55_linear_1403_7456)" stroke-width="4"/>
<ellipse opacity="0.966102" cx="80.0409" cy="100.007" rx="80.0409" ry="100.007" transform="matrix(0.939756 -0.341845 0.342195 0.939629 -50.4404 466.713)" stroke="url(#paint56_linear_1403_7456)" stroke-width="4"/>
<ellipse opacity="0.983051" cx="80.045" cy="90.0016" rx="80.045" ry="90.0016" transform="matrix(0.984825 -0.173551 0.173746 0.984791 -35.4678 458.58)" stroke="url(#paint57_linear_1403_7456)" stroke-width="4"/>
<ellipse cx="58.9995" cy="533.32" rx="80.0464" ry="80" stroke="url(#paint58_linear_1403_7456)" stroke-width="4"/>
<defs>
<linearGradient id="paint0_linear_1403_7456" x1="80.0272" y1="0" x2="80.0274" y2="1369.83" gradientUnits="userSpaceOnUse">
<stop stop-color="#FF1CF7"/>
<stop offset="1" stop-color="#00F0FF"/>
</linearGradient>
<linearGradient id="paint1_linear_1403_7456" x1="80.0348" y1="0" x2="80.035" y2="1348.95" gradientUnits="userSpaceOnUse">
<stop stop-color="#FF1CF7"/>
<stop offset="1" stop-color="#00F0FF"/>
</linearGradient>
<linearGradient id="paint2_linear_1403_7456" x1="80.0409" y1="0" x2="80.0412" y2="1328.09" gradientUnits="userSpaceOnUse">
<stop stop-color="#FF1CF7"/>
<stop offset="1" stop-color="#00F0FF"/>
</linearGradient>
<linearGradient id="paint3_linear_1403_7456" x1="80.045" y1="0" x2="80.0452" y2="1307.27" gradientUnits="userSpaceOnUse">
<stop stop-color="#FF1CF7"/>
<stop offset="1" stop-color="#00F0FF"/>
</linearGradient>
<linearGradient id="paint4_linear_1403_7456" x1="59.0005" y1="-86.6804" x2="59.0007" y2="1199.82" gradientUnits="userSpaceOnUse">
<stop stop-color="#FF1CF7"/>
<stop offset="1" stop-color="#00F0FF"/>
</linearGradient>
<linearGradient id="paint5_linear_1403_7456" x1="80.045" y1="0" x2="80.0452" y2="1265.77" gradientUnits="userSpaceOnUse">
<stop stop-color="#FF1CF7"/>
<stop offset="1" stop-color="#00F0FF"/>
</linearGradient>
<linearGradient id="paint6_linear_1403_7456" x1="80.0409" y1="0" x2="80.0411" y2="1245.08" gradientUnits="userSpaceOnUse">
<stop stop-color="#FF1CF7"/>
<stop offset="1" stop-color="#00F0FF"/>
</linearGradient>
<linearGradient id="paint7_linear_1403_7456" x1="80.0348" y1="0" x2="80.035" y2="1224.43" gradientUnits="userSpaceOnUse">
<stop stop-color="#FF1CF7"/>
<stop offset="1" stop-color="#00F0FF"/>
</linearGradient>
<linearGradient id="paint8_linear_1403_7456" x1="80.0272" y1="0" x2="80.0274" y2="1203.79" gradientUnits="userSpaceOnUse">
<stop stop-color="#FF1CF7"/>
<stop offset="1" stop-color="#00F0FF"/>
</linearGradient>
<linearGradient id="paint9_linear_1403_7456" x1="80.0192" y1="0" x2="80.0193" y2="1183.15" gradientUnits="userSpaceOnUse">
<stop stop-color="#FF1CF7"/>
<stop offset="1" stop-color="#00F0FF"/>
</linearGradient>
<linearGradient id="paint10_linear_1403_7456" x1="80.0116" y1="0" x2="80.0118" y2="1162.51" gradientUnits="userSpaceOnUse">
<stop stop-color="#FF1CF7"/>
<stop offset="1" stop-color="#00F0FF"/>
</linearGradient>
<linearGradient id="paint11_linear_1403_7456" x1="80.0054" y1="0" x2="80.0056" y2="1141.83" gradientUnits="userSpaceOnUse">
<stop stop-color="#FF1CF7"/>
<stop offset="1" stop-color="#00F0FF"/>
</linearGradient>
<linearGradient id="paint12_linear_1403_7456" x1="80.0014" y1="0" x2="80.0016" y2="1121.13" gradientUnits="userSpaceOnUse">
<stop stop-color="#FF1CF7"/>
<stop offset="1" stop-color="#00F0FF"/>
</linearGradient>
<linearGradient id="paint13_linear_1403_7456" x1="58.9995" y1="3.01318" x2="58.9997" y2="1103.4" gradientUnits="userSpaceOnUse">
<stop stop-color="#FF1CF7"/>
<stop offset="1" stop-color="#00F0FF"/>
</linearGradient>
<linearGradient id="paint14_linear_1403_7456" x1="80.0014" y1="0" x2="80.0015" y2="1079.61" gradientUnits="userSpaceOnUse">
<stop stop-color="#FF1CF7"/>
<stop offset="1" stop-color="#00F0FF"/>
</linearGradient>
<linearGradient id="paint15_linear_1403_7456" x1="80.0054" y1="0" x2="80.0056" y2="1058.79" gradientUnits="userSpaceOnUse">
<stop stop-color="#FF1CF7"/>
<stop offset="1" stop-color="#00F0FF"/>
</linearGradient>
<linearGradient id="paint16_linear_1403_7456" x1="80.0116" y1="0" x2="80.0117" y2="1037.95" gradientUnits="userSpaceOnUse">
<stop stop-color="#FF1CF7"/>
<stop offset="1" stop-color="#00F0FF"/>
</linearGradient>
<linearGradient id="paint17_linear_1403_7456" x1="80.0192" y1="0" x2="80.0193" y2="1017.1" gradientUnits="userSpaceOnUse">
<stop stop-color="#FF1CF7"/>
<stop offset="1" stop-color="#00F0FF"/>
</linearGradient>
<linearGradient id="paint18_linear_1403_7456" x1="80.0272" y1="0" x2="80.0273" y2="996.238" gradientUnits="userSpaceOnUse">
<stop stop-color="#FF1CF7"/>
<stop offset="1" stop-color="#00F0FF"/>
</linearGradient>
<linearGradient id="paint19_linear_1403_7456" x1="80.0348" y1="0" x2="80.0349" y2="975.391" gradientUnits="userSpaceOnUse">
<stop stop-color="#FF1CF7"/>
<stop offset="1" stop-color="#00F0FF"/>
</linearGradient>
<linearGradient id="paint20_linear_1403_7456" x1="80.0409" y1="0" x2="80.0411" y2="954.565" gradientUnits="userSpaceOnUse">
<stop stop-color="#FF1CF7"/>
<stop offset="1" stop-color="#00F0FF"/>
</linearGradient>
<linearGradient id="paint21_linear_1403_7456" x1="80.045" y1="0" x2="80.0451" y2="933.766" gradientUnits="userSpaceOnUse">
<stop stop-color="#FF1CF7"/>
<stop offset="1" stop-color="#00F0FF"/>
</linearGradient>
<linearGradient id="paint22_linear_1403_7456" x1="58.9985" y1="93.3203" x2="58.9986" y2="1006.32" gradientUnits="userSpaceOnUse">
<stop stop-color="#FF1CF7"/>
<stop offset="1" stop-color="#00F0FF"/>
</linearGradient>
<linearGradient id="paint23_linear_1403_7456" x1="80.045" y1="0" x2="80.0451" y2="892.266" gradientUnits="userSpaceOnUse">
<stop stop-color="#FF1CF7"/>
<stop offset="1" stop-color="#00F0FF"/>
</linearGradient>
<linearGradient id="paint24_linear_1403_7456" x1="80.0409" y1="0" x2="80.041" y2="871.559" gradientUnits="userSpaceOnUse">
<stop stop-color="#FF1CF7"/>
<stop offset="1" stop-color="#00F0FF"/>
</linearGradient>
<linearGradient id="paint25_linear_1403_7456" x1="80.0348" y1="0" x2="80.0349" y2="850.873" gradientUnits="userSpaceOnUse">
<stop stop-color="#FF1CF7"/>
<stop offset="1" stop-color="#00F0FF"/>
</linearGradient>
<linearGradient id="paint26_linear_1403_7456" x1="80.0272" y1="0" x2="80.0273" y2="830.199" gradientUnits="userSpaceOnUse">
<stop stop-color="#FF1CF7"/>
<stop offset="1" stop-color="#00F0FF"/>
</linearGradient>
<linearGradient id="paint27_linear_1403_7456" x1="80.0192" y1="0" x2="80.0192" y2="809.525" gradientUnits="userSpaceOnUse">
<stop stop-color="#FF1CF7"/>
<stop offset="1" stop-color="#00F0FF"/>
</linearGradient>
<linearGradient id="paint28_linear_1403_7456" x1="80.0116" y1="0" x2="80.0117" y2="788.843" gradientUnits="userSpaceOnUse">
<stop stop-color="#FF1CF7"/>
<stop offset="1" stop-color="#00F0FF"/>
</linearGradient>
<linearGradient id="paint29_linear_1403_7456" x1="80.0054" y1="0" x2="80.0055" y2="768.143" gradientUnits="userSpaceOnUse">
<stop stop-color="#FF1CF7"/>
<stop offset="1" stop-color="#00F0FF"/>
</linearGradient>
<linearGradient id="paint30_linear_1403_7456" x1="80.0014" y1="0" x2="80.0015" y2="747.42" gradientUnits="userSpaceOnUse">
<stop stop-color="#FF1CF7"/>
<stop offset="1" stop-color="#00F0FF"/>
</linearGradient>
<linearGradient id="paint31_linear_1403_7456" x1="59.0013" y1="183.117" x2="59.0014" y2="909.788" gradientUnits="userSpaceOnUse">
<stop stop-color="#FF1CF7"/>
<stop offset="1" stop-color="#00F0FF"/>
</linearGradient>
<linearGradient id="paint32_linear_1403_7456" x1="80.0014" y1="0" x2="80.0015" y2="705.896" gradientUnits="userSpaceOnUse">
<stop stop-color="#FF1CF7"/>
<stop offset="1" stop-color="#00F0FF"/>
</linearGradient>
<linearGradient id="paint33_linear_1403_7456" x1="80.0054" y1="0" x2="80.0055" y2="685.1" gradientUnits="userSpaceOnUse">
<stop stop-color="#FF1CF7"/>
<stop offset="1" stop-color="#00F0FF"/>
</linearGradient>
<linearGradient id="paint34_linear_1403_7456" x1="80.0116" y1="0" x2="80.0116" y2="664.289" gradientUnits="userSpaceOnUse">
<stop stop-color="#FF1CF7"/>
<stop offset="1" stop-color="#00F0FF"/>
</linearGradient>
<linearGradient id="paint35_linear_1403_7456" x1="80.0192" y1="0" x2="80.0192" y2="643.469" gradientUnits="userSpaceOnUse">
<stop stop-color="#FF1CF7"/>
<stop offset="1" stop-color="#00F0FF"/>
</linearGradient>
<linearGradient id="paint36_linear_1403_7456" x1="80.0272" y1="0" x2="80.0273" y2="622.649" gradientUnits="userSpaceOnUse">
<stop stop-color="#FF1CF7"/>
<stop offset="1" stop-color="#00F0FF"/>
</linearGradient>
<linearGradient id="paint37_linear_1403_7456" x1="80.0348" y1="0" x2="80.0348" y2="601.837" gradientUnits="userSpaceOnUse">
<stop stop-color="#FF1CF7"/>
<stop offset="1" stop-color="#00F0FF"/>
</linearGradient>
<linearGradient id="paint38_linear_1403_7456" x1="80.0409" y1="0" x2="80.041" y2="581.039" gradientUnits="userSpaceOnUse">
<stop stop-color="#FF1CF7"/>
<stop offset="1" stop-color="#00F0FF"/>
</linearGradient>
<linearGradient id="paint39_linear_1403_7456" x1="80.045" y1="0" x2="80.045" y2="560.26" gradientUnits="userSpaceOnUse">
<stop stop-color="#FF1CF7"/>
<stop offset="1" stop-color="#00F0FF"/>
</linearGradient>
<linearGradient id="paint40_linear_1403_7456" x1="58.9986" y1="273.32" x2="58.9986" y2="812.82" gradientUnits="userSpaceOnUse">
<stop stop-color="#FF1CF7"/>
<stop offset="1" stop-color="#00F0FF"/>
</linearGradient>
<linearGradient id="paint41_linear_1403_7456" x1="80.045" y1="0" x2="80.045" y2="518.759" gradientUnits="userSpaceOnUse">
<stop stop-color="#FF1CF7"/>
<stop offset="1" stop-color="#00F0FF"/>
</linearGradient>
<linearGradient id="paint42_linear_1403_7456" x1="80.0409" y1="0" x2="80.041" y2="498.034" gradientUnits="userSpaceOnUse">
<stop stop-color="#FF1CF7"/>
<stop offset="1" stop-color="#00F0FF"/>
</linearGradient>
<linearGradient id="paint43_linear_1403_7456" x1="80.0348" y1="0" x2="80.0348" y2="477.319" gradientUnits="userSpaceOnUse">
<stop stop-color="#FF1CF7"/>
<stop offset="1" stop-color="#00F0FF"/>
</linearGradient>
<linearGradient id="paint44_linear_1403_7456" x1="80.0272" y1="0" x2="80.0272" y2="456.609" gradientUnits="userSpaceOnUse">
<stop stop-color="#FF1CF7"/>
<stop offset="1" stop-color="#00F0FF"/>
</linearGradient>
<linearGradient id="paint45_linear_1403_7456" x1="80.0192" y1="0" x2="80.0192" y2="435.898" gradientUnits="userSpaceOnUse">
<stop stop-color="#FF1CF7"/>
<stop offset="1" stop-color="#00F0FF"/>
</linearGradient>
<linearGradient id="paint46_linear_1403_7456" x1="80.0116" y1="0" x2="80.0116" y2="415.18" gradientUnits="userSpaceOnUse">
<stop stop-color="#FF1CF7"/>
<stop offset="1" stop-color="#00F0FF"/>
</linearGradient>
<linearGradient id="paint47_linear_1403_7456" x1="80.0054" y1="0" x2="80.0054" y2="394.452" gradientUnits="userSpaceOnUse">
<stop stop-color="#FF1CF7"/>
<stop offset="1" stop-color="#00F0FF"/>
</linearGradient>
<linearGradient id="paint48_linear_1403_7456" x1="80.0014" y1="0" x2="80.0014" y2="373.71" gradientUnits="userSpaceOnUse">
<stop stop-color="#FF1CF7"/>
<stop offset="1" stop-color="#00F0FF"/>
</linearGradient>
<linearGradient id="paint49_linear_1403_7456" x1="58.9999" y1="363.222" x2="58.9999" y2="716.176" gradientUnits="userSpaceOnUse">
<stop stop-color="#FF1CF7"/>
<stop offset="1" stop-color="#00F0FF"/>
</linearGradient>
<linearGradient id="paint50_linear_1403_7456" x1="80.0014" y1="0" x2="80.0014" y2="332.187" gradientUnits="userSpaceOnUse">
<stop stop-color="#FF1CF7"/>
<stop offset="1" stop-color="#00F0FF"/>
</linearGradient>
<linearGradient id="paint51_linear_1403_7456" x1="80.0054" y1="0" x2="80.0054" y2="311.409" gradientUnits="userSpaceOnUse">
<stop stop-color="#FF1CF7"/>
<stop offset="1" stop-color="#00F0FF"/>
</linearGradient>
<linearGradient id="paint52_linear_1403_7456" x1="80.0116" y1="0" x2="80.0116" y2="290.626" gradientUnits="userSpaceOnUse">
<stop stop-color="#FF1CF7"/>
<stop offset="1" stop-color="#00F0FF"/>
</linearGradient>
<linearGradient id="paint53_linear_1403_7456" x1="80.0192" y1="0" x2="80.0192" y2="269.842" gradientUnits="userSpaceOnUse">
<stop stop-color="#FF1CF7"/>
<stop offset="1" stop-color="#00F0FF"/>
</linearGradient>
<linearGradient id="paint54_linear_1403_7456" x1="80.0272" y1="0" x2="80.0272" y2="249.06" gradientUnits="userSpaceOnUse">
<stop stop-color="#FF1CF7"/>
<stop offset="1" stop-color="#00F0FF"/>
</linearGradient>
<linearGradient id="paint55_linear_1403_7456" x1="80.0348" y1="0" x2="80.0348" y2="228.283" gradientUnits="userSpaceOnUse">
<stop stop-color="#FF1CF7"/>
<stop offset="1" stop-color="#00F0FF"/>
</linearGradient>
<linearGradient id="paint56_linear_1403_7456" x1="80.0409" y1="0" x2="80.0409" y2="207.514" gradientUnits="userSpaceOnUse">
<stop stop-color="#FF1CF7"/>
<stop offset="1" stop-color="#00F0FF"/>
</linearGradient>
<linearGradient id="paint57_linear_1403_7456" x1="80.045" y1="0" x2="80.045" y2="186.753" gradientUnits="userSpaceOnUse">
<stop stop-color="#FF1CF7"/>
<stop offset="1" stop-color="#00F0FF"/>
</linearGradient>
<linearGradient id="paint58_linear_1403_7456" x1="58.9995" y1="453.32" x2="58.9995" y2="619.32" gradientUnits="userSpaceOnUse">
<stop stop-color="#FF1CF7"/>
<stop offset="1" stop-color="#00F0FF"/>
</linearGradient>
</defs>
</svg>
