<svg width="185" height="369" viewBox="0 0 185 369" fill="none" xmlns="http://www.w3.org/2000/svg">
<g opacity="0.07">
<ellipse opacity="0.0169492" cx="23.2291" cy="191.621" rx="23.2291" ry="191.621" transform="matrix(-0.766228 0.642569 -0.643006 -0.765861 305.013 315.949)" stroke="url(#paint0_linear_1403_8706)" stroke-width="1.16106"/>
<ellipse opacity="0.0338983" cx="23.2313" cy="188.7" rx="23.2313" ry="188.7" transform="matrix(-0.866151 0.499783 -0.500217 -0.8659 278.513 335.906)" stroke="url(#paint1_linear_1403_8706)" stroke-width="1.16106"/>
<ellipse opacity="0.0508475" cx="23.2331" cy="185.783" rx="23.2331" ry="185.783" transform="matrix(-0.939756 0.341845 -0.342195 -0.939629 249.407 350.746)" stroke="url(#paint2_linear_1403_8706)" stroke-width="1.16106"/>
<ellipse opacity="0.0677966" cx="23.2343" cy="182.87" rx="23.2343" ry="182.87" transform="matrix(-0.984825 0.173551 -0.173746 -0.984791 218.655 360.178)" stroke="url(#paint3_linear_1403_8706)" stroke-width="1.16106"/>
<ellipse opacity="0.0847458" cx="164" cy="184.121" rx="23.2347" ry="179.965" transform="rotate(-180 164 184.121)" stroke="url(#paint4_linear_1403_8706)" stroke-width="1.16106"/>
<ellipse opacity="0.101695" cx="23.2343" cy="177.065" rx="23.2343" ry="177.065" transform="matrix(-0.984825 -0.173551 0.173746 -0.984791 156.117 362.525)" stroke="url(#paint5_linear_1403_8706)" stroke-width="1.16106"/>
<ellipse opacity="0.118644" cx="23.2331" cy="174.171" rx="23.2331" ry="174.171" transform="matrix(-0.939756 -0.341845 0.342195 -0.939629 126.233 355.719)" stroke="url(#paint6_linear_1403_8706)" stroke-width="1.16106"/>
<ellipse opacity="0.135593" cx="23.2313" cy="171.281" rx="23.2313" ry="171.281" transform="matrix(-0.866151 -0.499783 0.500217 -0.8659 98.4441 344.043)" stroke="url(#paint7_linear_1403_8706)" stroke-width="1.16106"/>
<ellipse opacity="0.152542" cx="23.2291" cy="168.394" rx="23.2291" ry="168.394" transform="matrix(-0.766228 -0.642569 0.643006 -0.765861 73.5203 328.014)" stroke="url(#paint8_linear_1403_8706)" stroke-width="1.16106"/>
<ellipse opacity="0.169492" cx="23.2268" cy="165.508" rx="23.2268" ry="165.508" transform="matrix(-0.643006 -0.765861 0.766228 -0.642569 52.1182 308.26)" stroke="url(#paint9_linear_1403_8706)" stroke-width="1.16106"/>
<ellipse opacity="0.186441" cx="23.2246" cy="162.619" rx="23.2246" ry="162.619" transform="matrix(-0.500217 -0.8659 0.866151 -0.499783 34.7644 285.504)" stroke="url(#paint10_linear_1403_8706)" stroke-width="1.16106"/>
<ellipse opacity="0.20339" cx="23.2228" cy="159.728" rx="23.2228" ry="159.728" transform="matrix(-0.342195 -0.939629 0.939756 -0.341845 21.842 260.543)" stroke="url(#paint11_linear_1403_8706)" stroke-width="1.16106"/>
<ellipse opacity="0.220339" cx="23.2216" cy="156.831" rx="23.2216" ry="156.831" transform="matrix(-0.173746 -0.984791 0.984825 -0.173551 13.5833 234.207)" stroke="url(#paint12_linear_1403_8706)" stroke-width="1.16106"/>
<ellipse opacity="0.237288" cx="164" cy="184.121" rx="23.2212" ry="153.93" transform="rotate(-90 164 184.121)" stroke="url(#paint13_linear_1403_8706)" stroke-width="1.16106"/>
<ellipse opacity="0.254237" cx="23.2216" cy="151.023" rx="23.2216" ry="151.023" transform="matrix(0.173746 -0.984791 0.984825 0.173551 11.2341 180.779)" stroke="url(#paint14_linear_1403_8706)" stroke-width="1.16106"/>
<ellipse opacity="0.271186" cx="23.2228" cy="148.111" rx="23.2228" ry="148.111" transform="matrix(0.342195 -0.939629 0.939756 0.341845 16.8645 155.311)" stroke="url(#paint15_linear_1403_8706)" stroke-width="1.16106"/>
<ellipse opacity="0.288136" cx="23.2246" cy="145.196" rx="23.2246" ry="145.196" transform="matrix(0.500217 -0.8659 0.866151 0.499783 26.6208 131.664)" stroke="url(#paint16_linear_1403_8706)" stroke-width="1.16106"/>
<ellipse opacity="0.305085" cx="23.2268" cy="142.278" rx="23.2268" ry="142.278" transform="matrix(0.643006 -0.765861 0.766228 0.642569 40.0474 110.486)" stroke="url(#paint17_linear_1403_8706)" stroke-width="1.16106"/>
<ellipse opacity="0.322034" cx="23.2291" cy="139.361" rx="23.2291" ry="139.361" transform="matrix(0.766228 -0.642569 0.643006 0.765861 56.5911 92.3164)" stroke="url(#paint18_linear_1403_8706)" stroke-width="1.16106"/>
<ellipse opacity="0.338983" cx="23.2313" cy="136.445" rx="23.2313" ry="136.445" transform="matrix(0.866151 -0.499783 0.500217 0.8659 75.626 77.584)" stroke="url(#paint19_linear_1403_8706)" stroke-width="1.16106"/>
<ellipse opacity="0.355932" cx="23.2331" cy="133.531" rx="23.2331" ry="133.531" transform="matrix(0.939756 -0.341845 0.342195 0.939629 96.4727 66.5938)" stroke="url(#paint20_linear_1403_8706)" stroke-width="1.16106"/>
<ellipse opacity="0.372881" cx="23.2343" cy="130.622" rx="23.2343" ry="130.622" transform="matrix(0.984825 -0.173551 0.173746 0.984791 118.424 59.5176)" stroke="url(#paint21_linear_1403_8706)" stroke-width="1.16106"/>
<ellipse opacity="0.38983" cx="164" cy="184.121" rx="23.2347" ry="127.717" stroke="url(#paint22_linear_1403_8706)" stroke-width="1.16106"/>
<ellipse opacity="0.40678" cx="23.2343" cy="124.816" rx="23.2343" ry="124.816" transform="matrix(0.984825 0.173551 -0.173746 0.984791 162.805 57.1719)" stroke="url(#paint23_linear_1403_8706)" stroke-width="1.16106"/>
<ellipse opacity="0.423729" cx="23.2331" cy="121.92" rx="23.2331" ry="121.92" transform="matrix(0.939756 0.341845 -0.342195 0.939629 183.887 61.6191)" stroke="url(#paint24_linear_1403_8706)" stroke-width="1.16106"/>
<ellipse opacity="0.440678" cx="23.2313" cy="119.026" rx="23.2313" ry="119.026" transform="matrix(0.866151 0.499783 -0.500217 0.8659 203.417 69.4453)" stroke="url(#paint25_linear_1403_8706)" stroke-width="1.16106"/>
<ellipse opacity="0.457627" cx="23.2291" cy="116.134" rx="23.2291" ry="116.134" transform="matrix(0.766228 0.642569 -0.643006 0.765861 220.876 80.252)" stroke="url(#paint26_linear_1403_8706)" stroke-width="1.16106"/>
<ellipse opacity="0.474576" cx="23.2268" cy="113.242" rx="23.2268" ry="113.242" transform="matrix(0.643006 0.765861 -0.766228 0.642569 235.834 93.5664)" stroke="url(#paint27_linear_1403_8706)" stroke-width="1.16106"/>
<ellipse opacity="0.491525" cx="23.2246" cy="110.349" rx="23.2246" ry="110.349" transform="matrix(0.500217 0.8659 -0.866151 0.499783 247.962 108.861)" stroke="url(#paint28_linear_1403_8706)" stroke-width="1.16106"/>
<ellipse opacity="0.508475" cx="23.2228" cy="107.453" rx="23.2228" ry="107.453" transform="matrix(0.342195 0.939629 -0.939756 0.341845 257.033 125.566)" stroke="url(#paint29_linear_1403_8706)" stroke-width="1.16106"/>
<ellipse opacity="0.525424" cx="23.2216" cy="104.554" rx="23.2216" ry="104.554" transform="matrix(0.173746 0.984791 -0.984825 0.173551 262.933 143.107)" stroke="url(#paint30_linear_1403_8706)" stroke-width="1.16106"/>
<ellipse opacity="0.542373" cx="164" cy="184.12" rx="23.2212" ry="101.652" transform="rotate(90 164 184.12)" stroke="url(#paint31_linear_1403_8706)" stroke-width="1.16106"/>
<ellipse opacity="0.559322" cx="23.2216" cy="98.7457" rx="23.2216" ry="98.7457" transform="matrix(-0.173746 0.984791 -0.984825 -0.173551 265.282 178.391)" stroke="url(#paint32_linear_1403_8706)" stroke-width="1.16106"/>
<ellipse opacity="0.576271" cx="23.2228" cy="95.8366" rx="23.2228" ry="95.8366" transform="matrix(-0.342195 0.939629 -0.939756 -0.341845 262.01 195.062)" stroke="url(#paint33_linear_1403_8706)" stroke-width="1.16106"/>
<ellipse opacity="0.59322" cx="23.2246" cy="92.9253" rx="23.2246" ry="92.9253" transform="matrix(-0.500217 0.8659 -0.866151 -0.499783 256.105 210.453)" stroke="url(#paint34_linear_1403_8706)" stroke-width="1.16106"/>
<ellipse opacity="0.610169" cx="23.2268" cy="90.0129" rx="23.2268" ry="90.0129" transform="matrix(-0.643006 0.765861 -0.766228 -0.642569 247.906 224.172)" stroke="url(#paint35_linear_1403_8706)" stroke-width="1.16106"/>
<ellipse opacity="0.627119" cx="23.2291" cy="87.1005" rx="23.2291" ry="87.1005" transform="matrix(-0.766228 0.642569 -0.643006 -0.765861 237.805 235.9)" stroke="url(#paint36_linear_1403_8706)" stroke-width="1.16106"/>
<ellipse opacity="0.644068" cx="23.2313" cy="84.1892" rx="23.2313" ry="84.1892" transform="matrix(-0.866151 0.499783 -0.500217 -0.8659 226.235 245.41)" stroke="url(#paint37_linear_1403_8706)" stroke-width="1.16106"/>
<ellipse opacity="0.661017" cx="23.2331" cy="81.2798" rx="23.2331" ry="81.2798" transform="matrix(-0.939756 0.341845 -0.342195 -0.939629 213.647 252.553)" stroke="url(#paint38_linear_1403_8706)" stroke-width="1.16106"/>
<ellipse opacity="0.677966" cx="23.2343" cy="78.373" rx="23.2343" ry="78.373" transform="matrix(-0.984825 0.173551 -0.173746 -0.984791 200.499 257.271)" stroke="url(#paint39_linear_1403_8706)" stroke-width="1.16106"/>
<ellipse opacity="0.694915" cx="164" cy="184.121" rx="23.2347" ry="75.469" transform="rotate(-180 164 184.121)" stroke="url(#paint40_linear_1403_8706)" stroke-width="1.16106"/>
<ellipse opacity="0.711864" cx="23.2343" cy="72.5676" rx="23.2343" ry="72.5676" transform="matrix(-0.984825 -0.173551 0.173746 -0.984791 174.273 259.617)" stroke="url(#paint41_linear_1403_8706)" stroke-width="1.16106"/>
<ellipse opacity="0.728814" cx="23.2331" cy="69.6684" rx="23.2331" ry="69.6684" transform="matrix(-0.939756 -0.341845 0.342195 -0.939629 161.993 257.525)" stroke="url(#paint42_linear_1403_8706)" stroke-width="1.16106"/>
<ellipse opacity="0.745763" cx="23.2313" cy="66.7707" rx="23.2313" ry="66.7707" transform="matrix(-0.866151 -0.499783 0.500217 -0.8659 150.722 253.547)" stroke="url(#paint43_linear_1403_8706)" stroke-width="1.16106"/>
<ellipse opacity="0.762712" cx="23.2291" cy="63.8737" rx="23.2291" ry="63.8737" transform="matrix(-0.766228 -0.642569 0.643006 -0.765861 140.727 247.965)" stroke="url(#paint44_linear_1403_8706)" stroke-width="1.16106"/>
<ellipse opacity="0.779661" cx="23.2268" cy="60.9765" rx="23.2268" ry="60.9765" transform="matrix(-0.643006 -0.765861 0.766228 -0.642569 132.213 241.09)" stroke="url(#paint45_linear_1403_8706)" stroke-width="1.16106"/>
<ellipse opacity="0.79661" cx="23.2246" cy="58.0783" rx="23.2246" ry="58.0783" transform="matrix(-0.500217 -0.8659 0.866151 -0.499783 125.313 233.258)" stroke="url(#paint46_linear_1403_8706)" stroke-width="1.16106"/>
<ellipse opacity="0.813559" cx="23.2228" cy="55.1787" rx="23.2228" ry="55.1787" transform="matrix(-0.342195 -0.939629 0.939756 -0.341845 120.092 224.805)" stroke="url(#paint47_linear_1403_8706)" stroke-width="1.16106"/>
<ellipse opacity="0.830508" cx="23.2216" cy="52.2772" rx="23.2216" ry="52.2772" transform="matrix(-0.173746 -0.984791 0.984825 -0.173551 116.551 216.062)" stroke="url(#paint48_linear_1403_8706)" stroke-width="1.16106"/>
<ellipse opacity="0.847458" cx="164" cy="184.121" rx="23.2212" ry="49.3737" transform="rotate(-90 164 184.121)" stroke="url(#paint49_linear_1403_8706)" stroke-width="1.16106"/>
<ellipse opacity="0.864407" cx="23.2216" cy="46.4686" rx="23.2216" ry="46.4686" transform="matrix(0.173746 -0.984791 0.984825 0.173551 114.202 198.924)" stroke="url(#paint50_linear_1403_8706)" stroke-width="1.16106"/>
<ellipse opacity="0.881356" cx="23.2228" cy="43.5621" rx="23.2228" ry="43.5621" transform="matrix(0.342195 -0.939629 0.939756 0.341845 115.115 191.051)" stroke="url(#paint51_linear_1403_8706)" stroke-width="1.16106"/>
<ellipse opacity="0.898305" cx="23.2246" cy="40.6548" rx="23.2246" ry="40.6548" transform="matrix(0.500217 -0.8659 0.866151 0.499783 117.169 183.912)" stroke="url(#paint52_linear_1403_8706)" stroke-width="1.16106"/>
<ellipse opacity="0.915254" cx="23.2268" cy="37.7473" rx="23.2268" ry="37.7473" transform="matrix(0.643006 -0.765861 0.766228 0.642569 120.142 177.654)" stroke="url(#paint53_linear_1403_8706)" stroke-width="1.16106"/>
<ellipse opacity="0.932203" cx="23.2291" cy="34.8402" rx="23.2291" ry="34.8402" transform="matrix(0.766228 -0.642569 0.643006 0.765861 123.799 172.365)" stroke="url(#paint54_linear_1403_8706)" stroke-width="1.16106"/>
<ellipse opacity="0.949153" cx="23.2313" cy="31.9338" rx="23.2313" ry="31.9338" transform="matrix(0.866151 -0.499783 0.500217 0.8659 127.904 168.08)" stroke="url(#paint55_linear_1403_8706)" stroke-width="1.16106"/>
<ellipse opacity="0.966102" cx="23.2331" cy="29.0285" rx="23.2331" ry="29.0285" transform="matrix(0.939756 -0.341845 0.342195 0.939629 132.233 164.787)" stroke="url(#paint56_linear_1403_8706)" stroke-width="1.16106"/>
<ellipse opacity="0.983051" cx="23.2343" cy="26.1243" rx="23.2343" ry="26.1243" transform="matrix(0.984825 -0.173551 0.173746 0.984791 136.579 162.426)" stroke="url(#paint57_linear_1403_8706)" stroke-width="1.16106"/>
<ellipse cx="164" cy="184.12" rx="23.2347" ry="23.2212" stroke="url(#paint58_linear_1403_8706)" stroke-width="1.16106"/>
</g>
<defs>
<linearGradient id="paint0_linear_1403_8706" x1="23.2291" y1="0" x2="23.2292" y2="397.614" gradientUnits="userSpaceOnUse">
<stop stop-color="#FF1CF7"/>
<stop offset="1" stop-color="#00F0FF"/>
</linearGradient>
<linearGradient id="paint1_linear_1403_8706" x1="23.2313" y1="0" x2="23.2314" y2="391.552" gradientUnits="userSpaceOnUse">
<stop stop-color="#FF1CF7"/>
<stop offset="1" stop-color="#00F0FF"/>
</linearGradient>
<linearGradient id="paint2_linear_1403_8706" x1="23.2331" y1="0" x2="23.2332" y2="385.499" gradientUnits="userSpaceOnUse">
<stop stop-color="#FF1CF7"/>
<stop offset="1" stop-color="#00F0FF"/>
</linearGradient>
<linearGradient id="paint3_linear_1403_8706" x1="23.2343" y1="0" x2="23.2344" y2="379.456" gradientUnits="userSpaceOnUse">
<stop stop-color="#FF1CF7"/>
<stop offset="1" stop-color="#00F0FF"/>
</linearGradient>
<linearGradient id="paint4_linear_1403_8706" x1="164" y1="4.15674" x2="164" y2="377.583" gradientUnits="userSpaceOnUse">
<stop stop-color="#FF1CF7"/>
<stop offset="1" stop-color="#00F0FF"/>
</linearGradient>
<linearGradient id="paint5_linear_1403_8706" x1="23.2343" y1="0" x2="23.2343" y2="367.41" gradientUnits="userSpaceOnUse">
<stop stop-color="#FF1CF7"/>
<stop offset="1" stop-color="#00F0FF"/>
</linearGradient>
<linearGradient id="paint6_linear_1403_8706" x1="23.2331" y1="0" x2="23.2332" y2="361.405" gradientUnits="userSpaceOnUse">
<stop stop-color="#FF1CF7"/>
<stop offset="1" stop-color="#00F0FF"/>
</linearGradient>
<linearGradient id="paint7_linear_1403_8706" x1="23.2313" y1="0" x2="23.2314" y2="355.409" gradientUnits="userSpaceOnUse">
<stop stop-color="#FF1CF7"/>
<stop offset="1" stop-color="#00F0FF"/>
</linearGradient>
<linearGradient id="paint8_linear_1403_8706" x1="23.2291" y1="0" x2="23.2292" y2="349.418" gradientUnits="userSpaceOnUse">
<stop stop-color="#FF1CF7"/>
<stop offset="1" stop-color="#00F0FF"/>
</linearGradient>
<linearGradient id="paint9_linear_1403_8706" x1="23.2268" y1="0" x2="23.2269" y2="343.428" gradientUnits="userSpaceOnUse">
<stop stop-color="#FF1CF7"/>
<stop offset="1" stop-color="#00F0FF"/>
</linearGradient>
<linearGradient id="paint10_linear_1403_8706" x1="23.2246" y1="0" x2="23.2247" y2="337.435" gradientUnits="userSpaceOnUse">
<stop stop-color="#FF1CF7"/>
<stop offset="1" stop-color="#00F0FF"/>
</linearGradient>
<linearGradient id="paint11_linear_1403_8706" x1="23.2228" y1="0" x2="23.2229" y2="331.435" gradientUnits="userSpaceOnUse">
<stop stop-color="#FF1CF7"/>
<stop offset="1" stop-color="#00F0FF"/>
</linearGradient>
<linearGradient id="paint12_linear_1403_8706" x1="23.2216" y1="0" x2="23.2217" y2="325.425" gradientUnits="userSpaceOnUse">
<stop stop-color="#FF1CF7"/>
<stop offset="1" stop-color="#00F0FF"/>
</linearGradient>
<linearGradient id="paint13_linear_1403_8706" x1="164" y1="30.1907" x2="164" y2="349.595" gradientUnits="userSpaceOnUse">
<stop stop-color="#FF1CF7"/>
<stop offset="1" stop-color="#00F0FF"/>
</linearGradient>
<linearGradient id="paint14_linear_1403_8706" x1="23.2216" y1="0" x2="23.2217" y2="313.372" gradientUnits="userSpaceOnUse">
<stop stop-color="#FF1CF7"/>
<stop offset="1" stop-color="#00F0FF"/>
</linearGradient>
<linearGradient id="paint15_linear_1403_8706" x1="23.2228" y1="0" x2="23.2229" y2="307.331" gradientUnits="userSpaceOnUse">
<stop stop-color="#FF1CF7"/>
<stop offset="1" stop-color="#00F0FF"/>
</linearGradient>
<linearGradient id="paint16_linear_1403_8706" x1="23.2246" y1="0" x2="23.2246" y2="301.281" gradientUnits="userSpaceOnUse">
<stop stop-color="#FF1CF7"/>
<stop offset="1" stop-color="#00F0FF"/>
</linearGradient>
<linearGradient id="paint17_linear_1403_8706" x1="23.2268" y1="0" x2="23.2268" y2="295.228" gradientUnits="userSpaceOnUse">
<stop stop-color="#FF1CF7"/>
<stop offset="1" stop-color="#00F0FF"/>
</linearGradient>
<linearGradient id="paint18_linear_1403_8706" x1="23.2291" y1="0" x2="23.2292" y2="289.174" gradientUnits="userSpaceOnUse">
<stop stop-color="#FF1CF7"/>
<stop offset="1" stop-color="#00F0FF"/>
</linearGradient>
<linearGradient id="paint19_linear_1403_8706" x1="23.2313" y1="0" x2="23.2314" y2="283.122" gradientUnits="userSpaceOnUse">
<stop stop-color="#FF1CF7"/>
<stop offset="1" stop-color="#00F0FF"/>
</linearGradient>
<linearGradient id="paint20_linear_1403_8706" x1="23.2331" y1="0" x2="23.2332" y2="277.077" gradientUnits="userSpaceOnUse">
<stop stop-color="#FF1CF7"/>
<stop offset="1" stop-color="#00F0FF"/>
</linearGradient>
<linearGradient id="paint21_linear_1403_8706" x1="23.2343" y1="0" x2="23.2343" y2="271.04" gradientUnits="userSpaceOnUse">
<stop stop-color="#FF1CF7"/>
<stop offset="1" stop-color="#00F0FF"/>
</linearGradient>
<linearGradient id="paint22_linear_1403_8706" x1="164" y1="56.4043" x2="164" y2="321.417" gradientUnits="userSpaceOnUse">
<stop stop-color="#FF1CF7"/>
<stop offset="1" stop-color="#00F0FF"/>
</linearGradient>
<linearGradient id="paint23_linear_1403_8706" x1="23.2343" y1="0" x2="23.2343" y2="258.994" gradientUnits="userSpaceOnUse">
<stop stop-color="#FF1CF7"/>
<stop offset="1" stop-color="#00F0FF"/>
</linearGradient>
<linearGradient id="paint24_linear_1403_8706" x1="23.2331" y1="0" x2="23.2332" y2="252.983" gradientUnits="userSpaceOnUse">
<stop stop-color="#FF1CF7"/>
<stop offset="1" stop-color="#00F0FF"/>
</linearGradient>
<linearGradient id="paint25_linear_1403_8706" x1="23.2313" y1="0" x2="23.2314" y2="246.979" gradientUnits="userSpaceOnUse">
<stop stop-color="#FF1CF7"/>
<stop offset="1" stop-color="#00F0FF"/>
</linearGradient>
<linearGradient id="paint26_linear_1403_8706" x1="23.2291" y1="0" x2="23.2292" y2="240.978" gradientUnits="userSpaceOnUse">
<stop stop-color="#FF1CF7"/>
<stop offset="1" stop-color="#00F0FF"/>
</linearGradient>
<linearGradient id="paint27_linear_1403_8706" x1="23.2268" y1="0" x2="23.2268" y2="234.977" gradientUnits="userSpaceOnUse">
<stop stop-color="#FF1CF7"/>
<stop offset="1" stop-color="#00F0FF"/>
</linearGradient>
<linearGradient id="paint28_linear_1403_8706" x1="23.2246" y1="0" x2="23.2246" y2="228.974" gradientUnits="userSpaceOnUse">
<stop stop-color="#FF1CF7"/>
<stop offset="1" stop-color="#00F0FF"/>
</linearGradient>
<linearGradient id="paint29_linear_1403_8706" x1="23.2228" y1="0" x2="23.2228" y2="222.965" gradientUnits="userSpaceOnUse">
<stop stop-color="#FF1CF7"/>
<stop offset="1" stop-color="#00F0FF"/>
</linearGradient>
<linearGradient id="paint30_linear_1403_8706" x1="23.2216" y1="0" x2="23.2217" y2="216.95" gradientUnits="userSpaceOnUse">
<stop stop-color="#FF1CF7"/>
<stop offset="1" stop-color="#00F0FF"/>
</linearGradient>
<linearGradient id="paint31_linear_1403_8706" x1="164" y1="82.4679" x2="164" y2="293.395" gradientUnits="userSpaceOnUse">
<stop stop-color="#FF1CF7"/>
<stop offset="1" stop-color="#00F0FF"/>
</linearGradient>
<linearGradient id="paint32_linear_1403_8706" x1="23.2216" y1="0" x2="23.2217" y2="204.897" gradientUnits="userSpaceOnUse">
<stop stop-color="#FF1CF7"/>
<stop offset="1" stop-color="#00F0FF"/>
</linearGradient>
<linearGradient id="paint33_linear_1403_8706" x1="23.2228" y1="0" x2="23.2228" y2="198.861" gradientUnits="userSpaceOnUse">
<stop stop-color="#FF1CF7"/>
<stop offset="1" stop-color="#00F0FF"/>
</linearGradient>
<linearGradient id="paint34_linear_1403_8706" x1="23.2246" y1="0" x2="23.2246" y2="192.82" gradientUnits="userSpaceOnUse">
<stop stop-color="#FF1CF7"/>
<stop offset="1" stop-color="#00F0FF"/>
</linearGradient>
<linearGradient id="paint35_linear_1403_8706" x1="23.2268" y1="0" x2="23.2268" y2="186.777" gradientUnits="userSpaceOnUse">
<stop stop-color="#FF1CF7"/>
<stop offset="1" stop-color="#00F0FF"/>
</linearGradient>
<linearGradient id="paint36_linear_1403_8706" x1="23.2291" y1="0" x2="23.2292" y2="180.734" gradientUnits="userSpaceOnUse">
<stop stop-color="#FF1CF7"/>
<stop offset="1" stop-color="#00F0FF"/>
</linearGradient>
<linearGradient id="paint37_linear_1403_8706" x1="23.2313" y1="0" x2="23.2313" y2="174.693" gradientUnits="userSpaceOnUse">
<stop stop-color="#FF1CF7"/>
<stop offset="1" stop-color="#00F0FF"/>
</linearGradient>
<linearGradient id="paint38_linear_1403_8706" x1="23.2331" y1="0" x2="23.2331" y2="168.656" gradientUnits="userSpaceOnUse">
<stop stop-color="#FF1CF7"/>
<stop offset="1" stop-color="#00F0FF"/>
</linearGradient>
<linearGradient id="paint39_linear_1403_8706" x1="23.2343" y1="0" x2="23.2343" y2="162.624" gradientUnits="userSpaceOnUse">
<stop stop-color="#FF1CF7"/>
<stop offset="1" stop-color="#00F0FF"/>
</linearGradient>
<linearGradient id="paint40_linear_1403_8706" x1="164" y1="108.652" x2="164" y2="265.25" gradientUnits="userSpaceOnUse">
<stop stop-color="#FF1CF7"/>
<stop offset="1" stop-color="#00F0FF"/>
</linearGradient>
<linearGradient id="paint41_linear_1403_8706" x1="23.2343" y1="0" x2="23.2343" y2="150.578" gradientUnits="userSpaceOnUse">
<stop stop-color="#FF1CF7"/>
<stop offset="1" stop-color="#00F0FF"/>
</linearGradient>
<linearGradient id="paint42_linear_1403_8706" x1="23.2331" y1="0" x2="23.2331" y2="144.562" gradientUnits="userSpaceOnUse">
<stop stop-color="#FF1CF7"/>
<stop offset="1" stop-color="#00F0FF"/>
</linearGradient>
<linearGradient id="paint43_linear_1403_8706" x1="23.2313" y1="0" x2="23.2313" y2="138.549" gradientUnits="userSpaceOnUse">
<stop stop-color="#FF1CF7"/>
<stop offset="1" stop-color="#00F0FF"/>
</linearGradient>
<linearGradient id="paint44_linear_1403_8706" x1="23.2291" y1="0" x2="23.2291" y2="132.538" gradientUnits="userSpaceOnUse">
<stop stop-color="#FF1CF7"/>
<stop offset="1" stop-color="#00F0FF"/>
</linearGradient>
<linearGradient id="paint45_linear_1403_8706" x1="23.2268" y1="0" x2="23.2268" y2="126.526" gradientUnits="userSpaceOnUse">
<stop stop-color="#FF1CF7"/>
<stop offset="1" stop-color="#00F0FF"/>
</linearGradient>
<linearGradient id="paint46_linear_1403_8706" x1="23.2246" y1="0" x2="23.2246" y2="120.513" gradientUnits="userSpaceOnUse">
<stop stop-color="#FF1CF7"/>
<stop offset="1" stop-color="#00F0FF"/>
</linearGradient>
<linearGradient id="paint47_linear_1403_8706" x1="23.2228" y1="0" x2="23.2228" y2="114.496" gradientUnits="userSpaceOnUse">
<stop stop-color="#FF1CF7"/>
<stop offset="1" stop-color="#00F0FF"/>
</linearGradient>
<linearGradient id="paint48_linear_1403_8706" x1="23.2216" y1="0" x2="23.2216" y2="108.475" gradientUnits="userSpaceOnUse">
<stop stop-color="#FF1CF7"/>
<stop offset="1" stop-color="#00F0FF"/>
</linearGradient>
<linearGradient id="paint49_linear_1403_8706" x1="164" y1="134.747" x2="164" y2="237.197" gradientUnits="userSpaceOnUse">
<stop stop-color="#FF1CF7"/>
<stop offset="1" stop-color="#00F0FF"/>
</linearGradient>
<linearGradient id="paint50_linear_1403_8706" x1="23.2216" y1="0" x2="23.2216" y2="96.4223" gradientUnits="userSpaceOnUse">
<stop stop-color="#FF1CF7"/>
<stop offset="1" stop-color="#00F0FF"/>
</linearGradient>
<linearGradient id="paint51_linear_1403_8706" x1="23.2228" y1="0" x2="23.2228" y2="90.3914" gradientUnits="userSpaceOnUse">
<stop stop-color="#FF1CF7"/>
<stop offset="1" stop-color="#00F0FF"/>
</linearGradient>
<linearGradient id="paint52_linear_1403_8706" x1="23.2246" y1="0" x2="23.2246" y2="84.3588" gradientUnits="userSpaceOnUse">
<stop stop-color="#FF1CF7"/>
<stop offset="1" stop-color="#00F0FF"/>
</linearGradient>
<linearGradient id="paint53_linear_1403_8706" x1="23.2268" y1="0" x2="23.2268" y2="78.3257" gradientUnits="userSpaceOnUse">
<stop stop-color="#FF1CF7"/>
<stop offset="1" stop-color="#00F0FF"/>
</linearGradient>
<linearGradient id="paint54_linear_1403_8706" x1="23.2291" y1="0" x2="23.2291" y2="72.2934" gradientUnits="userSpaceOnUse">
<stop stop-color="#FF1CF7"/>
<stop offset="1" stop-color="#00F0FF"/>
</linearGradient>
<linearGradient id="paint55_linear_1403_8706" x1="23.2313" y1="0" x2="23.2313" y2="66.2627" gradientUnits="userSpaceOnUse">
<stop stop-color="#FF1CF7"/>
<stop offset="1" stop-color="#00F0FF"/>
</linearGradient>
<linearGradient id="paint56_linear_1403_8706" x1="23.2331" y1="0" x2="23.2331" y2="60.2342" gradientUnits="userSpaceOnUse">
<stop stop-color="#FF1CF7"/>
<stop offset="1" stop-color="#00F0FF"/>
</linearGradient>
<linearGradient id="paint57_linear_1403_8706" x1="23.2343" y1="0" x2="23.2343" y2="54.208" gradientUnits="userSpaceOnUse">
<stop stop-color="#FF1CF7"/>
<stop offset="1" stop-color="#00F0FF"/>
</linearGradient>
<linearGradient id="paint58_linear_1403_8706" x1="164" y1="160.898" x2="164" y2="209.083" gradientUnits="userSpaceOnUse">
<stop stop-color="#FF1CF7"/>
<stop offset="1" stop-color="#00F0FF"/>
</linearGradient>
</defs>
</svg>
